<?xml version="1.0" encoding="utf-8"?><svg xmlns="http://www.w3.org/2000/svg" xmlns:xlink="http://www.w3.org/1999/xlink"><symbol fill="none" viewBox="0 0 67.03 19.63" id="ico-dev" xmlns="http://www.w3.org/2000/svg"><path d="M67 14.91c-.197.83-.16.669-.94.673h-5.879c-.66 0-.875-.211-.875-.868V4.812c0-.673.198-.875.861-.875h6.222c.385 0 .476.045.497.42.026.35.026.7 0 1.05-.017.252-.157.373-.435.37h-4.762v2.855c.1 0 .2.011.3.011h3.805c.347 0 .447.067.476.419.029.32.029.643 0 .963-.031.352-.13.421-.476.421H61.68v3.292h4.652c.506 0 .537.028.62.525.012.046.028.09.048.133v.514zM19.441 9.887a32.94 32.94 0 0 1-.63 6.343 3.543 3.543 0 0 1-2.878 2.671c-2.61.472-5.268.638-7.917.495a44.677 44.677 0 0 1-4.607-.533C1.832 18.601.793 17.405.52 15.771a36.537 36.537 0 0 1-.513-6.787c.035-1.9.23-3.794.582-5.66A3.586 3.586 0 0 1 3.53.54a33.984 33.984 0 0 1 7.804-.495c1.553.097 3.101.271 4.637.523 1.613.255 2.664 1.427 2.95 3.132.34 2.045.514 4.114.52 6.186zM2.051 9.65c-.016 1.92.13 3.838.44 5.732.171.951.547 1.401 1.494 1.537 1.22.173 2.447.328 3.676.402 2.543.172 5.096.054 7.611-.352 1.07-.181 1.489-.543 1.665-1.549.172-.944.289-1.896.35-2.854.07-1.538.116-3.092.052-4.618-.057-1.354-.238-2.702-.435-4.043-.122-.864-.557-1.273-1.427-1.387-1.287-.169-2.571-.335-3.858-.41a31.726 31.726 0 0 0-7.61.398c-.952.178-1.347.59-1.52 1.55A33.372 33.372 0 0 0 2.05 9.65zm51.319.891h-1.886c-.45 0-.559-.09-.573-.542-.006-.303.01-.606.047-.906a.313.313 0 0 1 .362-.285H55a.592.592 0 0 1 .638.646c.014.476 0 .97 0 1.456v3.168c0 .62-.098.77-.673.963-1.646.554-3.33.74-5.026.328-2.111-.511-3.503-2.04-3.833-4.185a7.502 7.502 0 0 1 .214-3.525c.713-2.188 2.27-3.377 4.518-3.7a7.342 7.342 0 0 1 3.63.337c1.15.423 1.272.602 1.189 1.92 0 .037 0 .075-.014.113-.062.438-.203.512-.585.293a6.034 6.034 0 0 0-3.092-.868c-1.843.016-3.197 1.132-3.518 2.947a5.231 5.231 0 0 0 .26 2.97 3.375 3.375 0 0 0 4.44 1.762c.093-.04.21-.159.211-.238.027-.872.01-1.736.01-2.654zM42.594 15.61c-.295-.017-.587-.027-.882-.048a.452.452 0 0 1-.424-.36c-.223-.696-.475-1.383-.69-2.08a.265.265 0 0 0-.304-.217h-3.907a.259.259 0 0 0-.295.224c-.21.67-.443 1.334-.645 2.005a.535.535 0 0 1-.528.433c-.475.016-.932.028-1.396 0-.342-.02-.447-.188-.352-.53.11-.393.238-.778.383-1.164 1.083-3.12 2.167-6.24 3.254-9.36.157-.455.27-.552.74-.56h1.823a.713.713 0 0 1 .73.545c1.164 3.374 2.337 6.745 3.518 10.113.052.142.096.287.13.435.082.359-.013.5-.387.528-.254.021-.514 0-.77 0l.002.036zm-5.898-4.52h3.28L38.36 6.24c-.576 1.548-1.09 3.092-1.601 4.621-.021.069-.033.13-.062.236l-.002-.005zm-11.071.448v3.605a.351.351 0 0 1-.302.407 4.163 4.163 0 0 1-1.753 0 .337.337 0 0 1-.297-.38V4.728a.715.715 0 0 1 .785-.787c1.331 0 2.663-.031 3.993.033.614.036 1.22.172 1.79.402 1.211.475 1.841 1.443 1.917 2.728a5.469 5.469 0 0 1-.137 1.607c-.402 1.627-1.568 2.426-3.142 2.704-.48.07-.962.109-1.446.115-.455.021-.911.007-1.408.007zm.014-1.817h1.625c1.24 0 1.921-.628 2.047-1.86.1-.973-.335-1.772-1.144-1.993-.808-.221-1.665-.09-2.53-.119l.002 3.972z" fill="#fff"/><path d="M8.135 9.766C7.58 9.212 7.085 8.724 6.6 8.232c-.543-.557-1.104-1.106-1.63-1.674-.475-.526-.475-1.14 0-1.603a1.144 1.144 0 0 1 1.665-.022c.973.937 1.917 1.903 2.869 2.854.077.093.146.191.207.295.138-.13.214-.2.285-.273l2.742-2.747c.33-.33.714-.554 1.19-.455a1.156 1.156 0 0 1 .649 1.95c-.53.583-1.102 1.13-1.665 1.69-.49.49-.985.974-1.49 1.471.098.103.167.179.239.253l2.882 2.887a1.21 1.21 0 0 1 .076 1.648 1.144 1.144 0 0 1-1.679.078c-.116-.097-.223-.207-.33-.313-.88-.88-1.756-1.761-2.626-2.643a2.154 2.154 0 0 1-.164-.204c-.519.502-1.006.968-1.486 1.439-.59.58-1.159 1.189-1.763 1.743a1.13 1.13 0 0 1-1.634-.067 1.19 1.19 0 0 1 .038-1.665c.952-.965 1.91-1.93 2.876-2.892.09-.078.184-.15.283-.216z" fill="#fff"/></symbol><symbol fill="none" viewBox="0 0 7.03 13" id="ico-fb" xmlns="http://www.w3.org/2000/svg"><path d="M6.764.003L5.078 0C3.184 0 1.96 1.256 1.96 3.2v1.474H.265A.265.265 0 0 0 0 4.94v2.137c0 .146.119.265.265.265H1.96v5.393c0 .146.119.265.265.265h2.212a.265.265 0 0 0 .265-.265V7.342h1.982a.265.265 0 0 0 .265-.265V4.94a.265.265 0 0 0-.265-.266H4.702v-1.25c0-.601.143-.906.926-.906h1.136a.265.265 0 0 0 .264-.266V.268a.265.265 0 0 0-.264-.265z" fill="#fff"/></symbol><symbol fill="none" viewBox="0 0 7.03 13" id="ico-fb-maincolor" xmlns="http://www.w3.org/2000/svg"><path d="M6.764.003L5.078 0C3.184 0 1.96 1.256 1.96 3.2v1.474H.265A.265.265 0 0 0 0 4.94v2.137c0 .146.119.265.265.265H1.96v5.393c0 .146.119.265.265.265h2.212a.265.265 0 0 0 .265-.265V7.342h1.982a.265.265 0 0 0 .265-.265V4.94a.265.265 0 0 0-.265-.266H4.702v-1.25c0-.601.143-.906.926-.906h1.136a.265.265 0 0 0 .264-.266V.268a.265.265 0 0 0-.264-.265z" fill="#dc6e65"/></symbol><symbol fill="none" viewBox="0 0 12 12" id="ico-insta" xmlns="http://www.w3.org/2000/svg"><path d="M8.537 0H3.464A3.464 3.464 0 0 0 0 3.464v5.072A3.464 3.464 0 0 0 3.464 12h5.073a3.464 3.464 0 0 0 3.464-3.464V3.464A3.464 3.464 0 0 0 8.537 0zm2.359 8.626a2.3 2.3 0 0 1-2.3 2.3H3.404a2.3 2.3 0 0 1-2.3-2.3V3.434a2.3 2.3 0 0 1 2.3-2.3h5.192a2.3 2.3 0 0 1 2.3 2.3v5.192z" fill="#fff"/><path d="M6 2.916a3.114 3.114 0 1 0 0 6.227 3.114 3.114 0 0 0 0-6.227zm0 5.133a2.019 2.019 0 1 1 .001-4.038 2.019 2.019 0 0 1 0 4.038zm3.219-4.525a.725.725 0 1 0 0-1.451.725.725 0 0 0 0 1.45z" fill="#fff"/></symbol><symbol fill="none" viewBox="0 0 12 12" id="ico-insta-maincolor" xmlns="http://www.w3.org/2000/svg"><path d="M8.537 0H3.464A3.464 3.464 0 0 0 0 3.464v5.072A3.464 3.464 0 0 0 3.464 12h5.073a3.464 3.464 0 0 0 3.464-3.464V3.464A3.464 3.464 0 0 0 8.537 0zm2.359 8.626a2.3 2.3 0 0 1-2.3 2.3H3.404a2.3 2.3 0 0 1-2.3-2.3V3.434a2.3 2.3 0 0 1 2.3-2.3h5.192a2.3 2.3 0 0 1 2.3 2.3v5.192z" fill="#dc6e65"/><path d="M6 2.916a3.114 3.114 0 1 0 0 6.227 3.114 3.114 0 0 0 0-6.227zm0 5.133a2.019 2.019 0 1 1 .001-4.038 2.019 2.019 0 0 1 0 4.038zm3.219-4.525a.725.725 0 1 0 0-1.451.725.725 0 0 0 0 1.45z" fill="#dc6e65"/></symbol><symbol viewBox="0 0 221.506 297.001" id="ico-marker" xmlns="http://www.w3.org/2000/svg"><path fill="#DB6D64" d="M110.753 0C49.683 0 0 49.703 0 110.797c0 91.026 99.729 179.905 103.976 183.645 1.936 1.705 4.356 2.559 6.777 2.559s4.841-.853 6.778-2.559c4.245-3.739 103.975-92.618 103.975-183.645C221.506 49.703 171.823 0 110.753 0z"/><g fill="#FFF"><path d="M110.74 189.884c-74.311-31.486-73.096-70.995-68.565-92.458 5.416-25.006 32.093-44.369 60.213-35.08.295.108.582.234.861.38a53.53 53.53 0 0 1 19.717-26.449 33.05 33.05 0 0 1 17.312 6.91c-24.171 13.49-34.447 25.766-39.104 51.81-18.35-17.059-41.003-4.277-40.952 17.363 0 8.884 4.126 35.713 50.62 55.682l23.893 10.124a212.625 212.625 0 0 1-23.995 11.718z"/><path d="M179.204 127.545a6.262 6.262 0 0 1-.177.658c-.177.683-.38 1.392-.582 2.101 0 .202 0 .43-.202.633-.253.835-.557 1.67-.861 2.531v.177a57.094 57.094 0 0 1-1.139 2.809c-.01.101-.01.203 0 .304-.354.759-.709 1.544-1.088 2.303-.152.354-.329.709-.506 1.038s-.532 1.012-.81 1.519-.532.962-.81 1.443l-.532.911a79.45 79.45 0 0 1-16.604 19.008l3.543 8.555-33.207-11.946 15.439-30.701 3.442 8.352c24.045-21.691 11.263-61.2-20.957-45.432a42.357 42.357 0 0 0-12.478 14.148c2.126-19.539 7.593-37.687 29.689-40.319a13.144 13.144 0 0 1 2.227 0c19.944.962 32.271 16.35 35.789 31.79a64.416 64.416 0 0 1-.176 30.118z"/></g></symbol><symbol fill="none" viewBox="0 0 17.11 10.1" id="ico-vk" xmlns="http://www.w3.org/2000/svg"><path fill-rule="evenodd" clip-rule="evenodd" d="M16.61.684c.12-.394 0-.684-.56-.684h-1.86c-.473 0-.692.25-.81.526 0 0-.945 2.305-2.285 3.803-.434.434-.631.572-.867.572-.118 0-.29-.138-.29-.532V.685C9.937.212 9.801 0 9.405 0H6.483c-.296 0-.473.22-.473.428 0 .448.67.552.739 1.813V4.98c0 .6-.108.709-.345.709-.631 0-2.164-2.316-3.074-4.965C3.152.208 2.973 0 2.498 0H.638C.104.001 0 .251 0 .527c0 .493.631 2.935 2.935 6.166 1.537 2.207 3.702 3.404 5.673 3.404 1.181 0 1.328-.266 1.328-.724V7.705c0-.532.112-.638.487-.638.276 0 .749.138 1.853 1.202 1.26 1.26 1.469 1.826 2.177 1.826h1.86c.532 0 .797-.266.644-.79-.168-.523-.77-1.28-1.57-2.179-.433-.512-1.083-1.063-1.28-1.34-.276-.354-.197-.511 0-.827.001 0 2.267-3.192 2.504-4.275z" fill="#fff"/></symbol><symbol fill="none" viewBox="0 0 17.11 10.1" id="ico-vk-maincolor" xmlns="http://www.w3.org/2000/svg"><path fill-rule="evenodd" clip-rule="evenodd" d="M16.61.684c.12-.394 0-.684-.56-.684h-1.86c-.473 0-.692.25-.81.526 0 0-.945 2.305-2.285 3.803-.434.434-.631.572-.867.572-.118 0-.29-.138-.29-.532V.685C9.937.212 9.801 0 9.405 0H6.483c-.296 0-.473.22-.473.428 0 .448.67.552.739 1.813V4.98c0 .6-.108.709-.345.709-.631 0-2.164-2.316-3.074-4.965C3.152.208 2.973 0 2.498 0H.638C.104.001 0 .251 0 .527c0 .493.631 2.935 2.935 6.166 1.537 2.207 3.702 3.404 5.673 3.404 1.181 0 1.328-.266 1.328-.724V7.705c0-.532.112-.638.487-.638.276 0 .749.138 1.853 1.202 1.26 1.26 1.469 1.826 2.177 1.826h1.86c.532 0 .797-.266.644-.79-.168-.523-.77-1.28-1.57-2.179-.433-.512-1.083-1.063-1.28-1.34-.276-.354-.197-.511 0-.827.001 0 2.267-3.192 2.504-4.275z" fill="#dc6e65"/></symbol></svg>