<svg width="17" height="11" viewBox="0 0 17 11" fill="none" xmlns="http://www.w3.org/2000/svg">
<path fill-rule="evenodd" clip-rule="evenodd" d="M16.6108 0.683646C16.7287 0.289764 16.6108 0 16.0488 0H14.1885C13.7156 0 13.4973 0.249624 13.3794 0.525592C13.3794 0.525592 12.4336 2.83118 11.0939 4.32893C10.6599 4.76295 10.4629 4.90094 10.2271 4.90094C10.1092 4.90094 9.93735 4.76296 9.93735 4.36908V0.684899C9.93735 0.211991 9.80063 0.00125371 9.40549 0.00125371H6.48274C6.1867 0.00125371 6.00983 0.220768 6.00983 0.428999C6.00983 0.87682 6.67968 0.980934 6.74867 2.24161V4.97997C6.74867 5.58083 6.64079 5.6887 6.40371 5.6887C5.77274 5.6887 4.23987 3.37308 3.33043 0.723784C3.15231 0.208225 2.97292 0.00125371 2.49751 0.00125371H0.63723C0.105364 0.00125371 0 0.250878 0 0.526846C0 1.01982 0.630959 3.46214 2.93529 6.69348C4.47193 8.89997 6.63703 10.0967 8.60769 10.0967C9.78934 10.0967 9.9361 9.83073 9.9361 9.37288V7.70452C9.9361 7.17266 10.0477 7.06728 10.4228 7.06728C10.6988 7.06728 11.1717 7.20527 12.2756 8.269C13.5362 9.52967 13.7445 10.0954 14.4532 10.0954H16.3135C16.8453 10.0954 17.11 9.82948 16.957 9.30514C16.7889 8.78205 16.1868 8.0244 15.3877 7.12625C14.9537 6.61445 14.3039 6.06251 14.107 5.78655C13.831 5.43155 13.91 5.27475 14.107 4.95864C14.1082 4.95864 16.3737 1.76745 16.6108 0.683646Z" fill="white"/>
</svg>
