<svg width="12" height="12" viewBox="0 0 12 12" fill="none" xmlns="http://www.w3.org/2000/svg">
<path d="M8.53723 0H3.46437C1.55164 0 0 1.55084 0 3.46357V8.53643C0 10.4492 1.55084 12 3.46437 12H8.53723C10.45 12 12.0008 10.4492 12.0008 8.53643V3.46357C12.0008 1.55084 10.45 0 8.53723 0ZM10.8959 8.6261C10.8959 9.89591 9.86629 10.9255 8.59648 10.9255H3.40432C2.13451 10.9255 1.10488 9.89591 1.10488 8.6261V3.43394C1.10488 2.16413 2.13451 1.13451 3.40432 1.13451H8.59648C9.86629 1.13451 10.8959 2.16413 10.8959 3.43394V8.6261Z" fill="#dc6e65"/>
<path d="M6.00081 2.91593C4.28103 2.91593 2.88712 4.30985 2.88712 6.02962C2.88712 7.7494 4.28103 9.14331 6.00081 9.14331C7.72058 9.14331 9.1145 7.7494 9.1145 6.02962C9.1145 4.30985 7.72058 2.91593 6.00081 2.91593ZM6.00081 8.04883C4.88631 8.04883 3.98239 7.14491 3.98239 6.03042C3.98239 4.91593 4.88631 4.01201 6.00081 4.01201C7.1153 4.01201 8.01922 4.91593 8.01922 6.03042C8.01922 7.14491 7.1153 8.04883 6.00081 8.04883Z" fill="#dc6e65"/>
<path d="M9.21857 3.52362C9.61919 3.52362 9.94395 3.19885 9.94395 2.79823C9.94395 2.39762 9.61919 2.07285 9.21857 2.07285C8.81796 2.07285 8.49319 2.39762 8.49319 2.79823C8.49319 3.19885 8.81796 3.52362 9.21857 3.52362Z" fill="#dc6e65"/>
</svg>
