<svg version="1.1" xmlns="http://www.w3.org/2000/svg" xmlns:xlink="http://www.w3.org/1999/xlink" x="0px" y="0px"
	 width="27px" height="37px" viewBox="0 0 221.506 297.001" enable-background="new 0 0 221.506 297.001"
	 xml:space="preserve">
<g>
	<path fill="#DB6D64" d="M110.753,0C49.683,0,0,49.703,0,110.797c0,91.026,99.729,179.905,103.976,183.645
		c1.936,1.705,4.356,2.559,6.777,2.559s4.841-0.853,6.778-2.559c4.245-3.739,103.975-92.618,103.975-183.645
		C221.506,49.703,171.823,0,110.753,0z"/>
	<g>
		<path fill="#FFFFFF" d="M110.74,189.884c-74.311-31.486-73.096-70.995-68.565-92.458c5.416-25.006,32.093-44.369,60.213-35.08
			c0.295,0.108,0.582,0.234,0.861,0.38c3.624-10.672,10.524-19.928,19.717-26.449c6.314,0.595,12.324,2.993,17.312,6.91
			c-24.171,13.49-34.447,25.766-39.104,51.81c-18.35-17.059-41.003-4.277-40.952,17.363c0,8.884,4.126,35.713,50.62,55.682l0,0
			l23.893,10.124C126.989,182.571,118.976,186.485,110.74,189.884z"/>
		<path fill="#FFFFFF" d="M179.204,127.545c-0.047,0.222-0.106,0.442-0.177,0.658c-0.177,0.683-0.38,1.392-0.582,2.101
			c0,0.202,0,0.43-0.202,0.633c-0.253,0.835-0.557,1.67-0.861,2.531c0,0,0,0.127,0,0.177c-0.354,0.945-0.734,1.881-1.139,2.809
			c-0.01,0.101-0.01,0.203,0,0.304c-0.354,0.759-0.709,1.544-1.088,2.303c-0.152,0.354-0.329,0.709-0.506,1.038
			s-0.532,1.012-0.81,1.519s-0.532,0.962-0.81,1.443l-0.532,0.911c-4.486,7.18-10.092,13.597-16.604,19.008l0,0l0,0l3.543,8.555
			l-33.207-11.946l15.439-30.701l3.442,8.352c24.045-21.691,11.263-61.2-20.957-45.432c-5.17,3.718-9.435,8.554-12.478,14.148
			c2.126-19.539,7.593-37.687,29.689-40.319c0.741-0.063,1.486-0.063,2.227,0c19.944,0.962,32.271,16.35,35.789,31.79
			C181.702,107.339,181.642,117.66,179.204,127.545z"/>
	</g>
</g>
</svg>
