<svg width="65" height="65" viewBox="0 0 65 65" fill="none" xmlns="http://www.w3.org/2000/svg">
<circle cx="32.5" cy="32.5" r="32.5" fill="#D1635B" fill-opacity="0.24"/>
<circle cx="32" cy="32" r="20" fill="white"/>
<circle cx="32" cy="32" r="20" fill="white"/>
<path d="M14.7969 32.2744H13.7949V34H13.2295V29.7344H14.6416C15.1221 29.7344 15.4912 29.8438 15.749 30.0625C16.0088 30.2812 16.1387 30.5996 16.1387 31.0176C16.1387 31.2832 16.0664 31.5146 15.9219 31.7119C15.7793 31.9092 15.5801 32.0566 15.3242 32.1543L16.3262 33.9648V34H15.7227L14.7969 32.2744ZM13.7949 31.8145H14.6592C14.9385 31.8145 15.1602 31.7422 15.3242 31.5977C15.4902 31.4531 15.5732 31.2598 15.5732 31.0176C15.5732 30.7539 15.4941 30.5518 15.3359 30.4111C15.1797 30.2705 14.9531 30.1992 14.6562 30.1973H13.7949V31.8145ZM19.6408 32.0283H17.7922V33.54H19.9396V34H17.2297V29.7344H19.9104V30.1973H17.7922V31.5684H19.6408V32.0283ZM24.0893 33.4404C23.9447 33.6475 23.7426 33.8027 23.4828 33.9062C23.225 34.0078 22.9242 34.0586 22.5805 34.0586C22.2328 34.0586 21.9242 33.9775 21.6547 33.8154C21.3852 33.6514 21.1762 33.4189 21.0277 33.1182C20.8813 32.8174 20.8061 32.4688 20.8021 32.0723V31.7002C20.8021 31.0576 20.9516 30.5596 21.2504 30.2061C21.5512 29.8525 21.973 29.6758 22.516 29.6758C22.9613 29.6758 23.3197 29.79 23.5912 30.0186C23.8627 30.2451 24.0287 30.5674 24.0893 30.9854H23.5268C23.4213 30.4209 23.0854 30.1387 22.5189 30.1387C22.142 30.1387 21.8559 30.2715 21.6605 30.5371C21.4672 30.8008 21.3695 31.1836 21.3676 31.6855V32.0342C21.3676 32.5127 21.477 32.8936 21.6957 33.1768C21.9145 33.458 22.2104 33.5986 22.5834 33.5986C22.7943 33.5986 22.9789 33.5752 23.1371 33.5283C23.2953 33.4814 23.4262 33.4023 23.5297 33.291V32.333H22.5424V31.876H24.0893V33.4404ZM28.3326 29.7344V32.6348C28.3307 33.0371 28.2037 33.3662 27.9518 33.6221C27.7018 33.8779 27.3619 34.0215 26.9322 34.0527L26.7828 34.0586C26.316 34.0586 25.9439 33.9326 25.6666 33.6807C25.3893 33.4287 25.2486 33.082 25.2447 32.6406V29.7344H25.8014V32.623C25.8014 32.9316 25.8863 33.1719 26.0562 33.3438C26.2262 33.5137 26.4684 33.5986 26.7828 33.5986C27.1012 33.5986 27.3443 33.5137 27.5123 33.3438C27.6822 33.1738 27.7672 32.9346 27.7672 32.626V29.7344H28.3326ZM30.0857 33.54H32.1072V34H29.5203V29.7344H30.0857V33.54ZM35.4629 32.8867H33.6758L33.2744 34H32.6943L34.3232 29.7344H34.8154L36.4473 34H35.8701L35.4629 32.8867ZM33.8457 32.4238H35.2959L34.5693 30.4287L33.8457 32.4238ZM39.8879 30.1973H38.5168V34H37.9572V30.1973H36.5891V29.7344H39.8879V30.1973ZM41.4242 34H40.8617V29.7344H41.4242V34ZM46.0367 32.0049C46.0367 32.4229 45.9664 32.7881 45.8258 33.1006C45.6852 33.4111 45.4859 33.6484 45.2281 33.8125C44.9703 33.9766 44.6695 34.0586 44.3258 34.0586C43.9898 34.0586 43.692 33.9766 43.4322 33.8125C43.1725 33.6465 42.9703 33.4111 42.8258 33.1064C42.6832 32.7998 42.61 32.4453 42.6061 32.043V31.7354C42.6061 31.3252 42.6773 30.9629 42.8199 30.6484C42.9625 30.334 43.1637 30.0938 43.4234 29.9277C43.6852 29.7598 43.984 29.6758 44.3199 29.6758C44.6617 29.6758 44.9625 29.7588 45.2223 29.9248C45.484 30.0889 45.6852 30.3281 45.8258 30.6426C45.9664 30.9551 46.0367 31.3193 46.0367 31.7354V32.0049ZM45.4771 31.7295C45.4771 31.2236 45.3756 30.8359 45.1725 30.5664C44.9693 30.2949 44.6852 30.1592 44.3199 30.1592C43.9645 30.1592 43.6842 30.2949 43.4791 30.5664C43.276 30.8359 43.1715 31.2109 43.1656 31.6914V32.0049C43.1656 32.4951 43.2682 32.8809 43.4732 33.1621C43.6803 33.4414 43.9645 33.5811 44.3258 33.5811C44.6891 33.5811 44.9703 33.4492 45.1695 33.1855C45.3687 32.9199 45.4713 32.54 45.4771 32.0459V31.7295ZM50.4588 34H49.8934L47.7459 30.7129V34H47.1805V29.7344H47.7459L49.8992 33.0361V29.7344H50.4588V34Z" fill="#D1635B"/>
</svg>
